<?xml version="1.0" encoding="iso-8859-1"?>
<!-- Generator: Adobe Illustrator 16.0.0, SVG Export Plug-In . SVG Version: 6.00 Build 0)  -->
<!DOCTYPE svg PUBLIC "-//W3C//DTD SVG 1.1//EN" "http://www.w3.org/Graphics/SVG/1.1/DTD/svg11.dtd">
<svg version="1.1" id="Capa_1" xmlns="http://www.w3.org/2000/svg" xmlns:xlink="http://www.w3.org/1999/xlink" x="0px" y="0px"
	 width="881.826px" height="881.826px" viewBox="0 0 881.826 881.826" style="enable-background:new 0 0 881.826 881.826;"
	 xml:space="preserve">
<g>
	<path fill="white" d="M808.199,865.307l70.701-70.7c3.9-3.899,3.9-10.2,0-14.1l-178-177.9c-14.701,21.9-31.5,42.5-50.4,61.4
		c-9.699,9.7-19.9,18.899-30.4,27.5L794,865.406C797.9,869.307,804.301,869.307,808.199,865.307z"/>
	<path fill="white" d="M364.5,742.406c85.901,0,164.901-29.699,227.2-79.399c31.5-25.101,58.701-55.3,80.4-89.3c36-56.5,56.9-123.7,56.9-195.7
		c0-201.3-163.199-364.5-364.5-364.5c-201.3,0-364.5,163.2-364.5,364.5C0,579.207,163.2,742.406,364.5,742.406z M157.6,328.007
		c0-5.5,4.5-10,10-10h393.599c5.5,0,10,4.5,10,10v100c0,5.5-4.5,10-10,10h-25H167.6c-5.5,0-10-4.5-10-10V328.007z"/>
</g>
<g>
</g>
<g>
</g>
<g>
</g>
<g>
</g>
<g>
</g>
<g>
</g>
<g>
</g>
<g>
</g>
<g>
</g>
<g>
</g>
<g>
</g>
<g>
</g>
<g>
</g>
<g>
</g>
<g>
</g>
</svg>
