<?xml version="1.0" encoding="iso-8859-1"?>
<!-- Generator: Adobe Illustrator 16.0.0, SVG Export Plug-In . SVG Version: 6.00 Build 0)  -->
<!DOCTYPE svg PUBLIC "-//W3C//DTD SVG 1.1//EN" "http://www.w3.org/Graphics/SVG/1.1/DTD/svg11.dtd">
<svg version="1.1" id="Capa_1" xmlns="http://www.w3.org/2000/svg" xmlns:xlink="http://www.w3.org/1999/xlink" x="0px" y="0px"
	 width="881.725px" height="881.724px" viewBox="0 0 881.725 881.724" style="enable-background:new 0 0 881.725 881.724;"
	 xml:space="preserve">
<g>
	<g>
		<path fill="white" d="M650.5,663.899c-9.699,9.7-19.9,18.9-30.4,27.5l173.9,173.9c3.9,3.9,10.199,3.9,14.1,0l70.701-70.7
			c3.898-3.899,3.898-10.2,0-14.1l-177.9-178C686.199,624.5,669.4,645,650.5,663.899z"/>
		<path fill="white" d="M364.5,742.399c85.901,0,164.901-29.699,227.2-79.399c31.5-25.101,58.701-55.3,80.4-89.3C708.1,517.2,729,450,729,378
			c0-201.3-163.199-364.5-364.5-364.5C163.2,13.5,0,176.699,0,378C0,579.2,163.2,742.399,364.5,742.399z M157.6,327.899
			c0-5.5,4.5-10,10-10h136.8v-136.8c0-5.5,4.5-10,10-10h100c5.5,0,10,4.5,10,10v136.8h136.799c5.5,0,10,4.5,10,10v100
			c0,5.5-4.5,10-10,10h-25H424.5v57.9v79c0,5.5-4.5,10-10,10h-100c-5.5,0-10-4.5-10-10v-136.9H167.6c-5.5,0-10-4.5-10-10V327.899z"
			/>
	</g>
</g>
<g>
</g>
<g>
</g>
<g>
</g>
<g>
</g>
<g>
</g>
<g>
</g>
<g>
</g>
<g>
</g>
<g>
</g>
<g>
</g>
<g>
</g>
<g>
</g>
<g>
</g>
<g>
</g>
<g>
</g>
</svg>
